<svg xmlns="http://www.w3.org/2000/svg" viewBox="0 0 24 24" fill="currentColor">
  <path d="M9 13a3 3 0 0 0 0 6a3 3 0 0 0 0-6m0 4a1 1 0 0 1 0-2a1 1 0 0 1 0 2m6-2a3 3 0 0 0 3-3a3 3 0 0 0-3-3a3 3 0 0 0-3 3a3 3 0 0 0 3 3m0-4a1 1 0 0 1 1 1a1 1 0 0 1-1 1a1 1 0 0 1-1-1a1 1 0 0 1 1-1m3-2a3 3 0 0 0 0-6a3 3 0 0 0 0 6m0-4a1 1 0 0 1 0 2a1 1 0 0 1 0-2M9 1a3 3 0 0 0-3 3a3 3 0 0 0 3 3a3 3 0 0 0 3-3a3 3 0 0 0-3-3m0 4a1 1 0 0 1-1-1a1 1 0 0 1 1-1a1 1 0 0 1 1 1a1 1 0 0 1-1 1m-1 3.35C5.5 9.11 4 10.85 4 13a4 4 0 0 0 4 4c2.15 0 3.89-1.5 4.65-4.35C14 12.5 15.5 11 17 11c.7 0 1.4.2 2 .55V5c-.6-.35-1.3-.55-2-.55c-1.5 0-3 1.5-3.35 2.85A6.05 6.05 0 0 0 9 5c-1.5 0-3 1.5-3.35 2.85A6.05 6.05 0 0 0 2 8.35V15c.55-.35 1.25-.55 2-.55c1.5 0 2.95 1.5 3.35 2.85A6.05 6.05 0 0 0 12 19c1.5 0 2.9-1.5 3.3-2.85C16.6 16.4 17.8 17 19 17c1.5 0 3-1.35 3.3-2.85A6.05 6.05 0 0 0 22 11v-1.65c-.35.1-.75.15-1.15.15c-1.5 0-2.9-1.5-3.3-2.85C16.6 6.4 15.35 6 14 6c-.7 0-1.4.2-2 .55v6.8c-.6.35-1.3.55-2 .55c-1.5 0-3-1.5-3.35-2.85A6.05 6.05 0 0 0 4 13c-1.5 0-3 1.35-3.3 2.85A6.05 6.05 0 0 0 2 19v1.65c.35-.1.75-.15 1.15-.15c1.5 0 2.9 1.5 3.3 2.85C7.4 23.6 8.65 24 10 24c.7 0 1.4-.2 2-.55v-6.8c.6-.35 1.3-.55 2-.55c1.5 0 3 1.5 3.35 2.85A6.05 6.05 0 0 0 20 21c.7 0 1.4-.2 2-.55V14c-.6.35-1.3.55-2 .55c-1.5 0-2.95-1.5-3.35-2.85A6.05 6.05 0 0 0 12 10c-.7 0-1.4.2-2 .55V3.65c-.6-.35-1.3-.55-2-.55Z"/>
</svg>
